<svg width="205" height="238" viewBox="0 0 205 238" fill="none" xmlns="http://www.w3.org/2000/svg">
<path d="M150.705 196.949L158.807 194.865C164.19 193.479 169.964 190.471 175.503 186.165C181.991 181.119 187.307 174.893 190.473 168.635C193.695 162.265 194.308 156.569 192.198 152.594C189.366 147.262 181.993 145.623 172.768 148.794L170.993 149.405L170.578 151.252C167.403 165.373 162.207 178.338 155.134 189.785L150.705 196.949ZM176.676 154.67C181.471 153.356 185.288 153.925 186.284 155.799C187.027 157.198 187.005 160.593 184.497 165.55C181.774 170.933 177.126 176.348 171.409 180.794C169.39 182.363 167.49 183.627 165.735 184.646C170.46 175.383 174.127 165.344 176.676 154.67Z" fill="#4B2E1D"/>
<path d="M28.3844 205.594C45.1964 226.08 67.1714 237.361 90.2594 237.361C112.335 237.361 133.491 226.981 150.009 208.09C151.254 208.153 152.472 208.131 153.747 208.037C162.444 207.397 172.097 203.263 180.932 196.396C200.282 181.347 209.215 159.337 201.71 145.199C197.744 137.726 189.81 134.017 180.002 134.844C180.202 132.855 180.363 130.867 180.485 128.899C180.704 125.352 179.524 121.914 177.247 119.465C175.299 117.371 172.749 116.217 170.065 116.217H10.4514C7.77443 116.217 5.22743 117.368 3.28143 119.457C0.998429 121.908 -0.188559 125.355 0.0244405 128.915C1.78444 158.222 11.8544 185.453 28.3844 205.594ZM8.16743 124.103C8.63743 123.598 9.41543 122.997 10.4514 122.997H170.065C171.105 122.997 171.885 123.6 172.356 124.108C173.355 125.182 173.89 126.816 173.787 128.478C173.584 131.757 173.265 135.096 172.838 138.402L172.225 143.145L176.859 142.156C185.777 140.252 192.678 142.529 195.795 148.402C201.571 159.283 193.066 178.403 176.837 191.024C169.034 197.09 160.66 200.731 153.257 201.276C151.782 201.385 150.413 201.37 148.959 201.207L147.191 201.006L146.035 202.374C130.653 220.564 110.846 230.582 90.2584 230.582C46.8494 230.582 10.1564 185.744 6.72244 128.504C6.62244 126.827 7.16243 125.181 8.16743 124.103Z" fill="#4B2E1D"/>
<path d="M64.6228 216.9C65.0848 216.9 65.5018 216.727 65.8248 216.4C66.1438 216.083 66.3198 215.663 66.3198 215.218C66.3198 214.763 66.1408 214.321 65.8278 214.006C65.1968 213.365 64.1368 213.36 63.4538 214.005C63.1428 214.319 62.9648 214.762 62.9648 215.218C62.9648 215.664 63.1398 216.084 63.4538 216.398C63.7658 216.713 64.2028 216.9 64.6228 216.9Z" fill="#4B2E1D"/>
<path d="M77.5213 210.438C77.9833 210.438 78.4003 210.265 78.7233 209.94C79.0423 209.622 79.2183 209.202 79.2183 208.758C79.2183 208.303 79.0383 207.861 78.7263 207.545C78.0963 206.904 77.0363 206.9 76.3533 207.544C76.0413 207.859 75.8633 208.301 75.8633 208.758C75.8633 209.204 76.0383 209.624 76.3533 209.938C76.6633 210.251 77.1003 210.438 77.5213 210.438Z" fill="#4B2E1D"/>
<path d="M122.867 195.557C123.301 195.557 123.715 195.379 124.012 195.077C124.351 194.783 124.561 194.323 124.561 193.875C124.561 193.459 124.403 193.06 124.058 192.653C123.732 192.345 123.274 192.183 122.796 192.196C122.353 192.212 121.948 192.387 121.694 192.665C121.351 193.016 121.17 193.435 121.17 193.876C121.17 194.379 121.424 194.815 121.662 195.056C121.977 195.374 122.416 195.557 122.867 195.557Z" fill="#4B2E1D"/>
<path d="M106.316 203.246C106.758 203.246 107.174 203.07 107.485 202.751C107.814 202.418 108.01 201.965 108.01 201.538C108.01 201.071 107.815 200.643 107.485 200.354C106.831 199.695 105.768 199.695 105.119 200.352C104.799 200.67 104.623 201.091 104.623 201.538C104.623 201.959 104.812 202.411 105.096 202.695C105.395 203.045 105.84 203.246 106.316 203.246Z" fill="#4B2E1D"/>
<path d="M117.466 213.745C117.869 213.745 118.299 213.572 118.671 213.247C118.984 212.931 119.163 212.489 119.163 212.034C119.163 211.558 118.97 211.109 118.681 210.866C118.387 210.546 117.975 210.365 117.521 210.357C117.071 210.335 116.631 210.517 116.353 210.8C116.006 211.102 115.809 211.553 115.809 212.034C115.809 212.507 116 212.956 116.298 213.214C116.627 213.547 117.064 213.745 117.466 213.745Z" fill="#4B2E1D"/>
<path d="M122.9 199.86C122.44 199.834 122.01 200.02 121.732 200.304C121.386 200.606 121.188 201.057 121.188 201.538C121.188 202.011 121.379 202.46 121.676 202.718C122.006 203.051 122.443 203.249 122.845 203.249C123.248 203.249 123.679 203.076 124.051 202.751C124.364 202.434 124.542 201.992 124.542 201.538C124.542 201.063 124.349 200.613 124.06 200.369C123.765 200.049 123.354 199.868 122.9 199.86Z" fill="#4B2E1D"/>
<path d="M91.6844 218.164C92.1394 218.164 92.5774 217.981 92.8824 217.668C93.1974 217.355 93.3784 216.911 93.3784 216.45C93.3784 216.023 93.1934 215.582 92.8854 215.27C92.2814 214.66 91.1194 214.661 90.5164 215.269C90.1984 215.591 90.0234 216.01 90.0234 216.449C90.0234 216.924 90.1954 217.345 90.5144 217.663C90.8184 217.977 91.2564 218.164 91.6844 218.164Z" fill="#4B2E1D"/>
<path d="M107.174 210.773C107.174 211.229 107.321 211.632 107.65 212.005C108.008 212.323 108.407 212.485 108.834 212.485C109.27 212.485 109.684 212.308 110.004 211.985C110.315 211.668 110.493 211.226 110.493 210.774C110.493 210.349 110.33 209.904 110.026 209.551C109.355 208.917 108.259 208.922 107.633 209.559C107.336 209.852 107.174 210.284 107.174 210.773Z" fill="#4B2E1D"/>
<path d="M140.255 178.474C140.695 178.474 141.11 178.297 141.401 177.997C141.728 177.711 141.916 177.273 141.916 176.796C141.916 176.339 141.737 175.896 141.423 175.58C141.114 175.266 140.66 175.088 140.193 175.1C139.741 175.108 139.322 175.287 139.055 175.579C138.741 175.895 138.561 176.339 138.561 176.796C138.561 177.227 138.746 177.669 139.052 177.973C139.363 178.293 139.801 178.474 140.255 178.474Z" fill="#4B2E1D"/>
<path d="M138.997 193.041C139.439 193.041 139.855 192.865 140.184 192.527C140.498 192.165 140.658 191.763 140.658 191.333C140.658 190.856 140.464 190.405 140.175 190.16C139.881 189.842 139.469 189.662 139.016 189.654C138.544 189.652 138.128 189.815 137.831 190.115C137.501 190.444 137.303 190.9 137.303 191.333C137.303 191.773 137.478 192.192 137.776 192.49C138.075 192.841 138.521 193.041 138.997 193.041Z" fill="#4B2E1D"/>
<path d="M133.203 207.909C133.641 207.909 134.057 207.73 134.326 207.448C134.684 207.179 134.897 206.722 134.897 206.228C134.897 205.774 134.718 205.331 134.395 205.006C134.071 204.699 133.6 204.533 133.138 204.548C132.695 204.564 132.289 204.738 132.035 205.014C131.722 205.331 131.543 205.774 131.543 206.228C131.543 206.671 131.718 207.122 131.999 207.408C132.315 207.726 132.754 207.909 133.203 207.909Z" fill="#4B2E1D"/>
<path d="M149.869 152.199C150.307 152.199 150.723 152.02 150.992 151.738C151.35 151.468 151.563 151.012 151.563 150.517C151.563 150.063 151.384 149.621 151.061 149.295C150.737 148.987 150.271 148.821 149.804 148.837C149.361 148.852 148.955 149.027 148.701 149.304C148.388 149.621 148.209 150.063 148.209 150.517C148.209 150.96 148.384 151.411 148.665 151.697C148.981 152.016 149.42 152.199 149.869 152.199Z" fill="#4B2E1D"/>
<path d="M159.388 160.631C159.826 160.631 160.241 160.455 160.557 160.136C160.87 159.82 161.049 159.378 161.049 158.923C161.049 158.476 160.874 158.055 160.566 157.75C160.271 157.431 159.837 157.248 159.375 157.248H159.373C158.905 157.249 158.468 157.432 158.187 157.738C157.87 158.054 157.695 158.475 157.695 158.923C157.695 159.396 157.886 159.845 158.147 160.059C158.418 160.422 158.87 160.631 159.388 160.631Z" fill="#4B2E1D"/>
<path d="M155.867 174.496C156.287 174.496 156.702 174.307 157.035 173.965C157.353 173.645 157.529 173.225 157.529 172.785C157.529 172.31 157.334 171.86 157.047 171.617C156.759 171.304 156.349 171.127 155.891 171.12C155.429 171.09 154.984 171.281 154.702 171.57C154.371 171.899 154.174 172.353 154.174 172.784C154.174 173.256 154.367 173.705 154.666 173.963C154.99 174.297 155.44 174.496 155.867 174.496Z" fill="#4B2E1D"/>
<path d="M100.242 33.999C98.8256 35.775 97.3726 37.379 95.5786 38.975C93.7706 40.651 91.8086 42.356 89.7496 44.137C85.7176 47.749 81.2236 51.859 77.8486 57.537C74.4266 63.167 72.9306 70.381 73.8686 76.702C74.6846 83.107 77.3536 88.767 80.8266 93.45C84.3786 98.098 88.6656 101.983 93.6186 104.555C87.7196 95.254 83.8746 85.166 84.4086 76.176C84.6966 71.703 86.0636 67.907 88.5476 64.502C91.0196 61.055 94.5936 57.825 98.5946 54.326C106.31 47.737 117.168 37.141 115.795 22.33C115.365 18.738 113.874 15.165 111.611 12.528C109.367 9.86302 106.675 8.06401 104.096 6.76501C98.8506 4.18801 93.9516 2.927 89.2086 0C91.8246 5.077 96.8256 8.56299 100.323 12.18C104.045 15.776 105.716 19.339 105.295 22.927C105.013 26.527 103.013 30.487 100.242 33.999Z" fill="#4B2E1D"/>
<path d="M64.2731 97.0557C59.8551 91.0537 56.6431 84.4867 55.8351 77.8167C55.0291 71.1577 57.0751 64.8007 61.3851 59.9407C65.8421 54.9087 71.9181 50.0127 76.2021 43.4327C78.3341 40.1777 80.2191 36.2737 80.1251 31.9457C79.9341 27.5507 77.1871 24.0437 74.0851 22.0957C76.2341 25.1887 77.5251 28.6206 76.8531 31.7516C76.2561 34.8846 74.2451 37.6517 72.0461 40.2477C67.4561 45.4837 61.7591 49.6527 56.3291 55.4877C53.7021 58.6337 51.5871 62.3937 50.5721 66.4927C49.6311 70.5907 49.5991 74.8987 50.6931 78.8187C52.7441 86.7147 57.9611 93.1207 64.2731 97.0557Z" fill="#4B2E1D"/>
<path d="M106.738 64.7845C104.738 67.8515 103.406 71.4585 103.081 75.1415C102.797 78.8155 103.257 82.4825 104.515 85.7645C106.924 92.3565 111.568 97.6795 117.164 100.979C113.484 95.6305 110.685 90.0215 109.548 84.3025C108.394 78.5785 109.347 73.0305 112.332 68.5225C115.329 64.0015 120.404 60.0195 124.766 55.0155C126.959 52.5225 128.992 49.6205 130.161 46.2885C131.299 42.9495 131.313 39.2815 130.12 36.2285C129.712 42.9655 125.766 47.4115 121.107 51.2585C116.505 55.2215 110.924 58.6605 106.738 64.7845Z" fill="#4B2E1D"/>
</svg>
